<svg width="25" height="24" viewBox="0 0 25 24" fill="none" xmlns="http://www.w3.org/2000/svg">
<g clip-path="url(#clip0_1_7)">
<path d="M8.12282 21.75C17.1772 21.75 22.1309 14.2467 22.1309 7.74191C22.1309 7.53097 22.1263 7.31534 22.1169 7.10441C23.0805 6.40751 23.9122 5.5443 24.5727 4.55534C23.6752 4.95465 22.7223 5.21543 21.7466 5.32878C22.7739 4.71295 23.5432 3.74552 23.9117 2.60581C22.9452 3.1786 21.8882 3.58266 20.7861 3.80066C20.0435 3.01161 19.0616 2.48916 17.9923 2.3141C16.923 2.13903 15.8259 2.3211 14.8704 2.83214C13.915 3.34319 13.1545 4.15475 12.7065 5.14136C12.2586 6.12796 12.1481 7.23466 12.3922 8.29034C10.4352 8.19214 8.5206 7.68375 6.77264 6.79814C5.02469 5.91254 3.48236 4.66948 2.24563 3.14956C1.61706 4.23329 1.42472 5.51569 1.70769 6.73614C1.99067 7.95658 2.72773 9.02349 3.76907 9.72003C2.98729 9.69521 2.22264 9.48473 1.53829 9.10597V9.16691C1.53759 10.3042 1.93076 11.4066 2.65097 12.2868C3.37118 13.167 4.37399 13.7706 5.48891 13.995C4.76472 14.1932 4.00464 14.222 3.26751 14.0794C3.58212 15.0575 4.19424 15.9129 5.01843 16.5264C5.84263 17.1398 6.83778 17.4806 7.86501 17.5013C6.12109 18.8712 3.96684 19.6142 1.74922 19.6107C1.35595 19.6101 0.963061 19.586 0.572662 19.5385C2.82552 20.9838 5.44619 21.7514 8.12282 21.75Z" fill="white"/>
</g>
<defs>
<clipPath id="clip0_1_7">
<rect width="24" height="24" fill="white" transform="translate(0.572662)"/>
</clipPath>
</defs>
</svg>
