<svg width="25" height="24" viewBox="0 0 25 24" fill="none" xmlns="http://www.w3.org/2000/svg">
<g clip-path="url(#clip0_1_9)">
<path d="M24.3336 7.20005C24.3336 7.20005 24.0992 5.54536 23.3773 4.8188C22.4633 3.86255 21.4414 3.85786 20.9727 3.80161C17.6164 3.55786 12.5773 3.55786 12.5773 3.55786H12.568C12.568 3.55786 7.5289 3.55786 4.17265 3.80161C3.7039 3.85786 2.68203 3.86255 1.76797 4.8188C1.04609 5.54536 0.816405 7.20005 0.816405 7.20005C0.816405 7.20005 0.572655 9.14536 0.572655 11.086V12.9047C0.572655 14.8454 0.811717 16.7907 0.811717 16.7907C0.811717 16.7907 1.04609 18.4454 1.76328 19.1719C2.67734 20.1282 3.87734 20.0954 4.41172 20.1985C6.33359 20.3813 12.5727 20.4375 12.5727 20.4375C12.5727 20.4375 17.6164 20.4282 20.9727 20.1891C21.4414 20.1329 22.4633 20.1282 23.3773 19.1719C24.0992 18.4454 24.3336 16.7907 24.3336 16.7907C24.3336 16.7907 24.5727 14.85 24.5727 12.9047V11.086C24.5727 9.14536 24.3336 7.20005 24.3336 7.20005ZM10.093 15.1125V8.36724L16.5758 11.7516L10.093 15.1125Z" fill="white"/>
</g>
<defs>
<clipPath id="clip0_1_9">
<rect width="24" height="24" fill="white" transform="translate(0.572655)"/>
</clipPath>
</defs>
</svg>
