<svg width="293" height="87" viewBox="0 0 293 87" fill="none" xmlns="http://www.w3.org/2000/svg">
<path d="M27.3801 61.7173L27.6637 62.5203C27.6187 62.4284 27.515 62.1474 27.3801 61.7173ZM14.2108 56.0057C14.7088 51.6921 16.3999 49.276 19.5867 46.7992C24.1465 43.4447 29.8424 45.3422 29.8424 45.3422V34.0839C31.2272 34.0482 32.6124 34.1347 33.982 34.3423V48.8268C33.982 48.8268 28.2879 46.9293 23.7281 50.2837C20.543 52.7605 18.8484 55.1784 18.3521 59.492C18.3365 61.8369 18.7567 64.9 20.6917 67.5485C20.2133 67.2918 19.7256 66.9993 19.2288 66.6709C14.9664 63.6755 14.19 59.1832 14.2108 56.0057ZM57.5004 13.2703C54.3637 9.67308 53.1775 6.04112 52.7487 3.48973H56.6946C56.6946 3.48973 55.9078 10.1795 61.6418 16.7583L61.7213 16.8468C60.1759 15.8295 58.7587 14.6286 57.5004 13.2703Z" fill="#EE1D52"/>
<path d="M76.5092 23.4707V37.6638C76.5092 37.6638 71.4739 37.4591 67.7475 36.4653C62.5444 35.0777 59.2002 32.9513 59.2002 32.9513C59.2002 32.9513 56.8901 31.4319 56.7033 31.3278V60.6488C56.7033 62.2792 56.2762 66.3552 54.9741 69.7565C53.2744 74.2036 50.6512 77.1227 50.1688 77.7176C50.1688 77.7176 46.9785 81.6653 41.35 84.3225C36.2767 86.7195 31.8223 86.6588 30.4909 86.7195C30.4909 86.7195 22.7909 87.0386 15.8621 82.3244C14.3632 81.2871 12.9645 80.1112 11.6844 78.8121L11.719 78.8364C18.6495 83.5506 26.3478 83.2315 26.3478 83.2315C27.681 83.1708 32.1353 83.2315 37.2069 80.8345C42.8319 78.1773 46.0257 74.2296 46.0257 74.2296C46.5029 73.6347 49.1382 70.7156 50.8311 66.2667C52.1297 62.8672 52.5602 58.7912 52.5602 57.1591V27.8398C52.747 27.9456 55.0571 29.465 55.0571 29.465C55.0571 29.465 58.4013 31.5949 63.6044 32.979C67.3325 33.9711 72.3661 34.1775 72.3661 34.1775V23.0562C74.0883 23.4603 75.5564 23.5713 76.5092 23.4707Z" fill="#EE1D52"/>
<path d="M72.3679 23.0562V34.1758C72.3679 34.1758 67.3343 33.9694 63.6062 32.9773C58.4031 31.5897 55.0589 29.4633 55.0589 29.4633C55.0589 29.4633 52.7487 27.9439 52.562 27.8381V57.1522C52.562 58.7843 52.1349 62.8603 50.8328 66.2598C49.1331 70.7087 46.5099 73.6278 46.0275 74.2227C46.0275 74.2227 42.8372 78.1704 37.2087 80.8276C32.1371 83.2246 27.6827 83.1639 26.3495 83.2246C26.3495 83.2246 18.6513 83.5437 11.7208 78.8295L11.6862 78.8052C10.9549 78.0633 10.2662 77.2804 9.62331 76.4602C7.41171 73.6365 6.05604 70.3011 5.7154 69.3489C5.71437 69.3449 5.71437 69.3408 5.7154 69.3368C5.16552 67.6804 4.01389 63.7085 4.17125 59.8597C4.44964 53.0675 6.73215 48.9014 7.33562 47.8555C8.93461 45.0086 11.0139 42.4617 13.4811 40.3279C15.6569 38.4849 18.1244 37.0194 20.7816 35.9918C22.4385 35.3011 24.1651 34.7923 25.9311 34.4741C27.2228 34.2425 28.5306 34.112 29.8425 34.0839V45.3353C29.8425 45.3353 24.1466 43.4378 19.5868 46.7923C16.3999 49.2691 14.7088 51.6852 14.2108 55.9988C14.19 59.1763 14.9664 63.6686 19.2254 66.6674C19.7211 66.997 20.2087 67.2895 20.6883 67.5451C21.4329 68.5537 22.3378 69.4327 23.3667 70.1468C27.5271 72.9028 31.0131 73.0954 35.4709 71.3054C38.4468 70.1242 40.6757 67.4271 41.7322 64.4369C42.3841 62.5706 42.3755 60.6905 42.3755 58.7496V3.49146H52.7505C53.1793 6.04285 54.3655 9.67481 57.5022 13.2721C58.7605 14.6303 60.1777 15.8312 61.7231 16.8485C62.1796 17.3429 64.514 19.785 67.5107 21.287C69.0565 22.0621 70.6864 22.6557 72.3679 23.0562Z" fill="white"/>
<path d="M1.58612 65.8921V65.9025L1.84204 66.6327C1.81437 66.5477 1.71754 66.2893 1.58612 65.8921Z" fill="#69C9D0"/>
<path d="M20.7816 35.9918C18.1244 37.0193 15.657 38.4849 13.4811 40.3279C11.0138 42.4666 8.93557 45.0189 7.33911 47.8711C6.73563 48.9117 4.45313 53.0831 4.17473 59.8753C4.01738 63.724 5.169 67.696 5.71888 69.3524C5.71785 69.3563 5.71785 69.3605 5.71888 69.3645C6.06471 70.308 7.41519 73.6434 9.62679 76.4758C10.2697 77.2959 10.9584 78.0789 11.6897 78.8208C9.34527 77.1944 7.25442 75.2281 5.48544 72.986C3.29286 70.1884 1.94065 66.886 1.5879 65.9112L1.57925 65.8904V65.8765C1.02938 64.2253 -0.125705 60.2499 0.0351074 56.3959C0.313503 49.6038 2.596 45.4376 3.19948 44.3917C4.79548 41.5393 6.87376 38.9869 9.34148 36.8486C11.5169 35.0049 13.9844 33.5393 16.642 32.5124C18.2989 31.8218 20.0255 31.3129 21.7915 30.9948C24.4525 30.5279 27.1706 30.4875 29.8442 30.8751V34.0839C28.5326 34.108 27.2249 34.2344 25.9328 34.462C24.1658 34.7839 22.4386 35.2968 20.7816 35.9918Z" fill="#69C9D0"/>
<path d="M52.7488 3.49146H42.3738V58.7531C42.3738 60.6939 42.3824 62.5689 41.7305 64.4404C40.6826 67.4271 38.4537 70.1242 35.483 71.321C31.0235 73.1179 27.5375 72.9184 23.3789 70.1623C22.3499 69.4483 21.445 68.5693 20.7004 67.5607C24.2434 69.4564 27.4147 69.4235 31.3434 67.8416C34.2968 66.6362 36.5447 63.9391 37.5822 60.9506C38.2359 59.0844 38.2272 57.2042 38.2272 55.2651V0H52.5534C52.5534 0 52.3908 1.37542 52.7488 3.49146ZM72.3679 19.9827V23.0562C70.6858 22.6558 69.0554 22.0622 67.5089 21.287C64.5123 19.785 62.1779 17.3429 61.7214 16.8485C62.2508 17.1975 62.8005 17.5143 63.3676 17.7973C67.0109 19.6219 70.5903 20.1683 72.3679 19.9827Z" fill="#69C9D0"/>
<path d="M225.667 48.8007C225.667 49.5912 225.783 50.3774 226.013 51.1336C226.026 51.1871 226.042 51.2398 226.061 51.2914C226.615 53.0802 227.724 54.6444 229.228 55.7551C230.731 56.8658 232.549 57.4648 234.417 57.4643V66.3448C230.109 66.3448 227.023 66.4957 222.328 63.7101C216.968 60.5326 213.956 54.7222 213.956 48.688C213.956 42.4682 217.324 36.2328 223.035 33.2305C227.175 31.052 230.325 31.0364 234.417 31.0364V39.9116C232.096 39.9121 229.871 40.8369 228.23 42.4827C226.59 44.1285 225.668 46.3605 225.667 48.688V48.8007Z" fill="#69C9D0"/>
<path d="M243.234 48.8007C243.235 49.5913 243.118 50.3776 242.888 51.1336C242.876 51.1873 242.86 51.2401 242.839 51.2914C242.287 53.0805 241.177 54.645 239.674 55.7558C238.17 56.8666 236.351 57.4653 234.484 57.4643V66.3448C238.793 66.3448 241.878 66.4957 246.573 63.7101C251.933 60.5326 254.947 54.7222 254.947 48.688C254.947 42.4682 251.577 36.2328 245.867 33.2305C241.728 31.052 238.575 31.0364 234.484 31.0364V39.9116C236.805 39.9116 239.03 40.8362 240.672 42.4821C242.313 44.1279 243.235 46.3602 243.235 48.688L243.234 48.8007Z" fill="#EE1D52"/>
<path d="M98.978 22.9833H131.384L128.389 31.9279H119.916V66.1557H109.478V31.9279H98.978V22.9833ZM184.866 22.9833V31.9279H195.365V66.1557H205.797V31.9279H214.27L217.272 22.9833H184.866ZM138.434 33.1767C139.432 33.1767 140.408 32.8798 141.238 32.3235C142.068 31.7672 142.715 30.9765 143.097 30.0513C143.479 29.1262 143.579 28.1082 143.385 27.1261C143.19 26.144 142.709 25.2419 142.003 24.5338C141.297 23.8258 140.398 23.3436 139.419 23.1482C138.44 22.9529 137.425 23.0532 136.503 23.4364C135.58 23.8196 134.792 24.4685 134.237 25.3011C133.683 26.1337 133.387 27.1125 133.387 28.1138C133.387 29.4566 133.918 30.7444 134.865 31.6939C135.812 32.6433 137.095 33.1767 138.434 33.1767ZM133.378 66.1557H143.61V36.7549H133.378V66.1557ZM180.411 32.9235H168.449L158.138 43.2765V23.0163H147.976L147.941 66.1557H158.205V54.9147L161.403 52.013L171.363 66.1557H182.334L167.906 45.4723L180.411 32.9235ZM278.549 45.4723L291.059 32.9235H279.097L268.786 43.2765V23.0163H258.622L258.589 66.1557H268.853V54.9147L272.057 52.013L282.019 66.1557H292.98L278.549 45.4723ZM252.248 48.688C252.248 58.4374 244.263 66.3413 234.412 66.3413C224.56 66.3413 216.577 58.4374 216.577 48.688C216.577 38.9386 224.562 31.0347 234.412 31.0347C244.261 31.0347 252.251 38.9403 252.251 48.688H252.248ZM243.161 48.688C243.161 46.9522 242.648 45.2554 241.687 43.8121C240.725 42.3688 239.359 41.244 237.76 40.5797C236.161 39.9154 234.402 39.7416 232.705 40.0803C231.007 40.4189 229.448 41.2548 228.225 42.4822C227.001 43.7096 226.168 45.2734 225.83 46.9758C225.492 48.6783 225.666 50.4429 226.328 52.0466C226.99 53.6502 228.112 55.0209 229.551 55.9853C230.989 56.9496 232.681 57.4644 234.412 57.4644C235.561 57.465 236.699 57.2385 237.761 56.7978C238.823 56.357 239.788 55.7106 240.601 54.8956C241.414 54.0805 242.059 53.1128 242.499 52.0476C242.939 50.9825 243.165 49.8409 243.165 48.688H243.161Z" fill="white"/>
</svg>
